<svg version="1.1" xmlns="http://www.w3.org/2000/svg" x="0px" y="0px" viewBox="0 0 435.1 426.4" xml:space="preserve">
	<path d="M203.6,417.4c-34.8-20-63.4-40.9-86.5-63l-11-10.5l-3.9,3.5c-2.2,2-4.4,3.6-5,3.6c-2.2,0-25.7-26.4-37.8-42.5
		c-17.1-22.6-34.6-52.9-44.8-77.3l-2.7-6.4l3.8-4.5c8.5-10.1,8.1-7.9,3.9-21.1c-7.9-25.7-13.8-53.8-17.1-81.5L1,104.9L46,53L90.9,1.2
		l5.9,2.4c8.9,3.6,28.4,9,44.7,12.4c19.5,4,19,4.1,20.5-1.8c2.3-8.5,1.2-8.1,16.2-5.5c29.3,4.9,52.3,4.9,80.9-0.1l13.1-2.2l0.8,2.1
		c0.4,1.2,1.4,4,2.1,6.3c1.5,5.1,0.9,5.1,19.9,1.2c16-3.2,36.1-8.7,45.2-12.4l5.9-2.4l45,51.9l45,51.9l-2.1,16.2
		c-3.6,28.8-8.6,52-16.7,78c-4.1,13.2-4.5,11,4,21.2l3.9,4.5l-5.7,12.8c-9.9,22.3-26.7,50.8-41.8,70.8C365.3,324.9,342,351,339.8,351
		c-0.6,0-2.8-1.6-5-3.5l-3.9-3.6l-11.2,10.7c-25.1,23.8-57.3,46.8-95.8,68.2l-5.5,3.1L203.6,417.4z M227.9,395.9
		c28.8-17.3,55-37.7,78.6-61.4c44.1-44.1,74.4-94.1,94.4-156c5-15.3,11.1-37.9,11.1-40.9c0-1-79.9-94.3-89.6-104.5
		c-1.2-1.3-2.9-1.1-12.8,1.2c-13.7,3.3-40.1,7.2-57.9,8.6c-38.1,3.2-90.2-0.4-123.5-8.4c-5.7-1.4-10.9-2.5-11.5-2.5
		c-0.7,0-9.1,9.1-18.8,20.2c-9.7,11.2-30.1,34.7-45.3,52.2l-27.7,31.9l0.7,4.1c0.3,2.3,2.2,9.7,4,16.6
		c28.4,104.1,87,182.5,177.9,237.9c5.5,3.3,10.4,6.1,10.9,6.1S223.2,398.7,227.9,395.9z">
	</path>
	<path d="M126.7,297.3L106,276.5l7.1-25.8c5.2-18.3,7.7-25.8,8.8-26.1c15.6-4.5,15.8-4.6,16.5-7.4c0.3-1.5,4.6-18.4,9.6-37.7
		c15.5-60.1,15.5-60.4,14.5-61.9c-0.6-0.8-3.2-4-6-7.1l-4.9-5.7l2.9-11.4l2.9-11.5l23.8,23.8l23.7,23.8l-15.8,61
		c-8.7,33.6-16.6,64.3-17.6,68.3l-1.8,7.4l4.9,4.9l4.8,4.9H207h27.6l4.9-5l4.9-5h32.1h32L283,291.4l-25.5,25.4l-55,0.7l-55,0.6
		L126.7,297.3z">
	</path>
	<path d="M278.3,130.8c-4.5-5.1-10-11.2-12.1-13.5l-4-4.3h-26.8h-26.9l-21.8-21.8c-12-12-21.5-22.1-21.1-22.5
		c0.9-0.9,22.6-0.9,83.1,0l47.1,0.6l18.7,21c15.2,17.2,18.4,21.2,17.3,22.3c-1.7,1.6-43.7,27.4-44.6,27.4
		C286.8,140,282.8,135.8,278.3,130.8L278.3,130.8z">
	</path>
</svg>